<?xml version="1.0" encoding="iso-8859-1"?>
<!-- Generator: Adobe Illustrator 18.0.0, SVG Export Plug-In . SVG Version: 6.00 Build 0)  -->
<!DOCTYPE svg PUBLIC "-//W3C//DTD SVG 1.1//EN" "http://www.w3.org/Graphics/SVG/1.1/DTD/svg11.dtd">
<svg version="1.1" id="Capa_1" xmlns="http://www.w3.org/2000/svg" xmlns:xlink="http://www.w3.org/1999/xlink" x="0px" y="0px"
	 viewBox="0 0 454.989 454.989" style="enable-background:new 0 0 454.989 454.989;" xml:space="preserve">
<path id="XMLID_257_" d="M419.215,96.032l-82.992-43.337c-3.162-1.653-6.886-1.713-10.107-0.206c-3.206,1.515-5.525,4.44-6.25,7.919
	l-21.793,103.169c-1.773-0.266-3.621-0.502-5.438-0.747l10.342-150.707c0.267-3.79-1.389-7.462-4.418-9.782
	c-3.014-2.304-7.003-2.962-10.578-1.728l-72.621,24.933c-5.939,2.039-9.087,8.488-7.047,14.42c2.024,5.933,8.569,9.066,14.405,7.05
	l56.457-19.379l-9.131,132.882c-10.063-0.731-20.553-1.161-31.413-1.161c-27.201,0-52.349,2.46-72.975,6.613l-10.313-27.489
	c54.83-21.498,95.256-44.748,92.02-53.361c-1.122-3.006-132.104-21.166-132.104-21.166s-86.687,99.829-85.564,102.829
	c3.236,8.621,48.98-0.458,104.402-20.331l9.456,25.192c-17.091,5.543-24.905,11.737-30.839,20.327l0.002-0.01
	c-20.021,27.156-32.947,64.123-32.947,100.743c0,89.628,71.129,162.284,158.863,162.284c87.735,0,158.864-72.656,158.864-162.284
	c0-36.62-13.483-74.007-33.167-101.407c-8.761-12.196-19.961-17.631-43.975-23.414l18.616-88.148l69.725,36.42
	c5.614,2.896,12.426,0.739,15.321-4.809C426.913,105.789,424.757,98.934,419.215,96.032z M128.482,195.254
	c3.045-2.63,9.943-6.073,20.406-9.39l7.875,20.98C141.884,202.901,132.221,198.483,128.482,195.254z M266.306,215.061
	c-8.644,0.568-17.715,0.968-27.674,0.968c-21.793,0-40.174-1.604-55.658-3.907l-11.896-31.702
	c17.495-3.397,39.821-5.933,67.554-5.933c11.037,0,20.952,0.496,30.378,1.184L266.306,215.061z M289.932,202.118l1.655-24.092
	c1.108,0.156,2.26,0.297,3.339,0.459L289.932,202.118z M348.796,195.254c-4.432,3.834-17.006,9.354-37.131,13.748l5.542-26.226
	C334.082,186.928,344.778,191.782,348.796,195.254z"/>
<g>
</g>
<g>
</g>
<g>
</g>
<g>
</g>
<g>
</g>
<g>
</g>
<g>
</g>
<g>
</g>
<g>
</g>
<g>
</g>
<g>
</g>
<g>
</g>
<g>
</g>
<g>
</g>
<g>
</g>
</svg>
