<?xml version="1.0" encoding="iso-8859-1"?>
<!-- Generator: Adobe Illustrator 17.1.0, SVG Export Plug-In . SVG Version: 6.00 Build 0)  -->
<!DOCTYPE svg PUBLIC "-//W3C//DTD SVG 1.1//EN" "http://www.w3.org/Graphics/SVG/1.1/DTD/svg11.dtd">
<svg version="1.1" id="Capa_1" xmlns="http://www.w3.org/2000/svg" xmlns:xlink="http://www.w3.org/1999/xlink" x="0px" y="0px"
	 viewBox="0 0 511 511" style="enable-background:new 0 0 511 511;" xml:space="preserve">
<g>
	<path d="M511,199.426v-78.254c0-0.017,0-0.034,0-0.052V79.499c0-21.78-17.72-39.5-39.5-39.5h-432c-21.78,0-39.5,17.72-39.5,39.5
		v90.06c0,0.017,0,0.034,0,0.052v261.888c0,21.78,17.72,39.5,39.5,39.5h151.973c0.011,0,0.022,0.002,0.033,0.002
		c0.008,0,0.015-0.002,0.023-0.002H471.5c21.78,0,39.5-17.72,39.5-39.5V199.478C511,199.461,511,199.443,511,199.426z M496,186.999
		l-50.062-26.7l50.062-26.7V186.999z M39.5,54.999h432c13.509,0,24.5,10.991,24.5,24.5v37.1l-66,35.2l-18.971-10.118
		c-2.206-1.177-4.853-1.177-7.059,0l-50.085,26.712c-0.75-0.252-1.551-0.394-2.386-0.394H100.375l-49.346-26.318
		c-2.206-1.177-4.853-1.177-7.059,0L15,157.132V79.499C15,65.99,25.991,54.999,39.5,54.999z M15,431.499V174.132l32.5-17.333
		l47.404,25.282c0.017,0.009,0.034,0.018,0.051,0.027l45.016,24.009c1.124,0.6,2.332,0.884,3.523,0.884
		c2.681,0,5.274-1.441,6.624-3.972c1.949-3.655,0.566-8.198-3.088-10.147l-18.529-9.882h72.841c-1.096,2.87-1.659,5.915-1.659,8.914
		c0,6.025,2.134,11.649,6.008,15.835c3.062,3.308,8.637,7.251,17.809,7.251h32c7.163,0,10.5,2.685,10.5,4.5s-3.337,4.5-10.5,4.5h-64
		c-24.572,0-37.161,11.354-38.737,22.606c-1.185,8.458,3.625,19.233,20.676,24.105c17.274,4.936,48.716,7.229,82.004,9.657
		c30.28,2.208,61.591,4.493,85.542,8.86C375.018,295.433,376,302.692,376,303.499c0,0.241-0.299,6.005-26.332,15.121
		c-18.698,6.548-44.189,12.671-71.178,19.155c-62.281,14.961-126.682,30.432-141.596,58.173
		c-7.071,13.153-8.035,25.677-2.863,37.223c4.315,9.635,12.471,17.142,21.239,22.828H39.5C25.991,455.999,15,445.008,15,431.499z
		 M471.5,455.999H192.421c-10.726-2.742-37.382-12.62-44.7-28.959c-3.215-7.177-2.435-15.024,2.385-23.989
		c11.735-21.827,78.356-37.831,131.888-50.69C351.612,335.636,391,325.121,391,303.499c0-18.08-25.291-25.01-47.323-29.028
		c-24.746-4.512-56.466-6.826-87.142-9.064c-32.495-2.37-63.187-4.609-78.974-9.12c-6.231-1.78-10.32-4.906-9.942-7.602
		c0.425-3.035,7.029-9.687,23.882-9.687h64c16.741,0,25.5-9.81,25.5-19.5s-8.759-19.5-25.5-19.5h-32
		c-3.014,0-5.302-0.821-6.801-2.44c-1.3-1.405-2.017-3.41-2.017-5.646c0-3.311,1.857-8.914,8.817-8.914h103l-18.529,9.882
		c-3.655,1.949-5.038,6.492-3.088,10.147c1.95,3.656,6.494,5.037,10.147,3.088l92.471-49.318l88.5,47.2v227.5
		C496,445.008,485.009,455.999,471.5,455.999z"/>
	<path d="M95.5,134.999c17.369,0,31.5-14.131,31.5-31.5s-14.131-31.5-31.5-31.5S64,86.13,64,103.499S78.131,134.999,95.5,134.999z
		 M95.5,86.999c9.098,0,16.5,7.402,16.5,16.5s-7.402,16.5-16.5,16.5s-16.5-7.402-16.5-16.5S86.402,86.999,95.5,86.999z"/>
</g>
<g>
</g>
<g>
</g>
<g>
</g>
<g>
</g>
<g>
</g>
<g>
</g>
<g>
</g>
<g>
</g>
<g>
</g>
<g>
</g>
<g>
</g>
<g>
</g>
<g>
</g>
<g>
</g>
<g>
</g>
</svg>
