<?xml version="1.0" encoding="iso-8859-1"?>
<!-- Generator: Adobe Illustrator 18.0.0, SVG Export Plug-In . SVG Version: 6.00 Build 0)  -->
<!DOCTYPE svg PUBLIC "-//W3C//DTD SVG 1.1//EN" "http://www.w3.org/Graphics/SVG/1.1/DTD/svg11.dtd">
<svg version="1.1" id="Capa_1" xmlns="http://www.w3.org/2000/svg" xmlns:xlink="http://www.w3.org/1999/xlink" x="0px" y="0px"
	 viewBox="0 0 479.478 479.478" style="enable-background:new 0 0 479.478 479.478;" xml:space="preserve">
<path id="XMLID_50_" d="M433.885,184.249l-99.561-72.507c-12.682-9.226-28.763-12.813-44.221-9.772
	c-15.393,3.027-28.979,12.417-37.23,25.776c-5.508,8.914-2.746,20.604,6.16,26.118c8.938,5.491,20.62,2.746,26.127-6.169
	c2.714-4.399,7.189-7.494,12.259-8.484c5.054-0.998,10.372,0.171,14.568,3.22l55.935,40.726H111.571l55.919-40.718
	c4.195-3.041,9.529-4.196,14.553-3.236c5.085,0.998,9.561,4.093,12.275,8.492c5.506,8.914,17.172,11.66,26.126,6.169
	c8.906-5.514,11.668-17.204,6.16-26.118c-8.251-13.359-21.837-22.749-37.247-25.784c-15.379-3.025-31.508,0.555-44.204,9.788
	l-99.562,72.499C19.653,189.295,0,212.13,0,239.527v22.383c0,64.325,52.33,116.656,116.641,116.656h14.319
	c49.242,0,91.651-33.443,103.163-81.303c1.232-5.172,9.92-5.476,11.153-0.289c11.417,48.041,53.874,81.592,103.257,81.592h14.289
	c64.324,0,116.655-52.332,116.655-116.656v-22.383C479.478,212.13,459.824,189.295,433.885,184.249z M37.965,261.91v-3.611
	l37.185-37.192h33.878l-66.415,66.431C39.806,279.466,37.965,270.933,37.965,261.91z M55.31,310.606l89.5-89.5h33.879
	L72.655,327.141C65.995,322.626,60.316,316.901,55.31,310.606z"/>
<g>
</g>
<g>
</g>
<g>
</g>
<g>
</g>
<g>
</g>
<g>
</g>
<g>
</g>
<g>
</g>
<g>
</g>
<g>
</g>
<g>
</g>
<g>
</g>
<g>
</g>
<g>
</g>
<g>
</g>
</svg>
